<svg width="24" height="25" viewBox="0 0 24 25" fill="none" xmlns="http://www.w3.org/2000/svg">
<g opacity="0.6" clip-path="url(#clip0_560_974)">
<path d="M12 10.2049V14.8521H18.4582C18.1746 16.3467 17.3236 17.6122 16.0472 18.4631L19.9417 21.4849C22.2108 19.3905 23.5199 16.3141 23.5199 12.6595C23.5199 11.8086 23.4436 10.9904 23.3017 10.205L12 10.2049Z" fill="white"/>
<path d="M5.27461 14.6707L4.39625 15.3431L1.28711 17.7649C3.26165 21.6812 7.30862 24.3867 11.9995 24.3867C15.2394 24.3867 17.9557 23.3176 19.9412 21.4849L16.0467 18.4631C14.9776 19.1831 13.614 19.6195 11.9995 19.6195C8.87951 19.6195 6.22868 17.5141 5.27952 14.6777L5.27461 14.6707Z" fill="white"/>
<path d="M1.28718 7.00854C0.469042 8.62302 0 10.4449 0 12.3867C0 14.3284 0.469042 16.1503 1.28718 17.7648C1.28718 17.7756 5.27997 14.6666 5.27997 14.6666C5.03998 13.9466 4.89812 13.183 4.89812 12.3865C4.89812 11.5901 5.03998 10.8265 5.27997 10.1065L1.28718 7.00854Z" fill="white"/>
<path d="M11.9997 5.1649C13.767 5.1649 15.3379 5.77579 16.5925 6.95399L20.0288 3.51767C17.9452 1.57588 15.2398 0.386719 11.9997 0.386719C7.30887 0.386719 3.26165 3.08126 1.28711 7.00854L5.27978 10.1067C6.22882 7.27034 8.87976 5.1649 11.9997 5.1649Z" fill="white"/>
</g>
<defs>
<clipPath id="clip0_560_974">
<rect width="24" height="24" fill="white" transform="translate(0 0.386719)"/>
</clipPath>
</defs>
</svg>
