<?xml version="1.0" standalone="no"?>
<!DOCTYPE svg PUBLIC "-//W3C//DTD SVG 20010904//EN"
 "http://www.w3.org/TR/2001/REC-SVG-20010904/DTD/svg10.dtd">
<svg version="1.0" xmlns="http://www.w3.org/2000/svg"
 width="114.000000pt" height="126.000000pt" viewBox="0 0 414.000000 426.000000"
 preserveAspectRatio="xMidYMid meet">

<g transform="translate(0.000000,426.000000) scale(0.100000,-0.100000)"
fill="#ffff" stroke="none">
<path d="M1820 3835 l-256 -255 -487 0 -487 0 0 -487 0 -487 -255 -256 c-140
-140 -255 -260 -255 -265 0 -6 115 -125 255 -265 l255 -255 0 -472 0 -473 473
0 472 0 250 -250 c137 -137 257 -250 265 -250 8 0 128 112 265 250 l250 250
490 2 490 3 3 490 2 490 250 250 c138 137 250 257 250 265 0 8 -112 128 -250
265 l-250 250 0 472 0 473 -473 0 -472 0 -255 255 c-140 140 -259 255 -265
255 -5 0 -125 -115 -265 -255z m658 -253 l-72 -3 234 -234 c129 -129 239 -235
244 -235 6 0 62 52 126 115 112 110 119 115 159 115 36 0 49 -6 77 -34 28 -28
34 -41 34 -77 0 -41 -4 -47 -120 -163 l-120 -122 255 -254 255 -255 0 75 0 75
232 -232 233 -233 -230 -230 -230 -230 -3 52 -3 52 -229 -229 -229 -229 94
-97 c90 -91 95 -99 95 -139 0 -34 -6 -48 -34 -76 -28 -28 -42 -34 -76 -34 -40
0 -48 5 -139 95 l-97 94 -264 -264 -264 -264 52 -3 52 -3 -230 -230 -230 -230
-233 233 -232 232 68 0 c37 0 67 3 67 7 0 5 -113 121 -252 260 l-252 252 -86
-84 c-47 -46 -98 -87 -113 -90 -66 -17 -137 36 -137 102 0 47 14 68 104 161
l71 72 -233 233 -232 232 0 -75 0 -75 -235 235 -235 235 232 233 233 232 5
-50 5 -50 245 245 245 245 -92 92 c-99 102 -113 122 -113 167 0 38 49 97 86
104 51 9 87 -12 184 -108 l95 -95 240 240 240 240 -55 0 -55 0 235 235 235
235 233 -232 232 -233 -72 -3z"/>
<path d="M1670 3465 l-395 -395 253 -252 252 -253 0 158 c0 175 8 205 60 232
37 19 63 19 100 0 58 -30 60 -44 60 -384 l0 -310 -31 -36 -31 -35 -327 0
c-294 0 -328 2 -347 18 -45 36 -58 107 -28 150 31 45 63 52 226 52 l153 0
-250 250 -250 250 -405 -405 -405 -405 388 -387 387 -388 267 268 268 267
-164 0 -163 0 -34 34 c-28 28 -34 42 -34 76 0 34 6 48 34 76 l34 34 316 0
c347 0 350 0 382 -61 21 -42 21 -617 -1 -659 -21 -40 -53 -60 -98 -60 -31 0
-46 7 -73 34 l-34 34 0 161 c0 89 -3 161 -8 161 -11 0 -522 -514 -522 -525 0
-11 808 -815 818 -815 4 0 194 187 422 415 l415 415 -263 262 -262 263 0 -169
0 -168 -34 -34 c-28 -28 -42 -34 -76 -34 -34 0 -48 6 -76 34 l-34 34 0 313 c1
340 1 344 56 380 27 18 49 19 342 19 l314 0 34 -34 c28 -28 34 -42 34 -76 0
-34 -6 -48 -34 -76 l-34 -34 -161 0 c-89 0 -161 -3 -161 -8 0 -4 115 -122 255
-262 l255 -255 380 380 c209 209 380 384 380 390 0 6 -181 191 -403 413 l-402
402 -233 -233 c-127 -127 -232 -235 -232 -240 0 -4 75 -7 166 -7 l166 0 29
-31 c41 -44 41 -105 0 -151 l-29 -33 -327 0 -327 0 -34 37 -34 38 0 316 0 316
34 34 c29 29 41 34 81 34 38 0 52 -5 76 -29 l29 -29 0 -166 c0 -91 3 -166 8
-166 11 0 462 454 462 465 0 10 -770 785 -780 785 -3 0 -183 -178 -400 -395z"/>
</g>
</svg>
