<?xml version="1.0" encoding="UTF-8"?>
<svg id="Layer_1" data-name="Layer 1" xmlns="http://www.w3.org/2000/svg" viewBox="0 0 2000 2000">
  <defs>
    <style>
      .cls-1, .cls-2 {
        fill: #fff;
      }

      .cls-3 {
        fill: none;
        stroke: #fff;
        stroke-width: 7px;
      }

      .cls-3, .cls-2 {
        stroke-miterlimit: 10;
      }

      .cls-4 {
        fill: #231023;
      }

      .cls-2 {
        stroke: #231023;
        stroke-width: 10px;
      }
    </style>
  </defs>
  <rect class="cls-3" x="584.58" y="648.75" width="830.83" height="830.83" transform="translate(-459.59 1018.79) rotate(-45)"/>
  <rect class="cls-1" x="584.58" y="648.75" width="830.83" height="830.83"/>
  <rect class="cls-2" x="620.23" y="684.39" width="759.54" height="759.54" transform="translate(-459.59 1018.79) rotate(-45)"/>
  <path class="cls-4" d="m942.08,1041.53c.6-.06,1.19-.17,1.79-.25.68-.1,1.35-.17,2.03-.3.69-.13,1.35-.32,2.03-.49.57-.14,1.15-.27,1.72-.44.67-.2,1.31-.44,1.96-.68.56-.2,1.13-.38,1.68-.61.62-.25,1.21-.55,1.81-.84.56-.26,1.13-.51,1.68-.8.6-.32,1.16-.68,1.74-1.02.52-.31,1.06-.61,1.57-.95.66-.44,1.28-.93,1.91-1.4.39-.3.8-.57,1.18-.88,2.02-1.65,3.87-3.5,5.52-5.52.31-.38.59-.79.88-1.18.48-.63.96-1.25,1.4-1.91.34-.51.63-1.04.95-1.57.35-.58.71-1.14,1.02-1.74.29-.55.54-1.12.8-1.68.28-.6.58-1.19.84-1.81.23-.55.41-1.12.61-1.68.23-.65.48-1.29.68-1.96.17-.57.29-1.15.43-1.72.17-.67.35-1.34.49-2.03.13-.67.21-1.35.3-2.03.08-.6.19-1.18.25-1.79.12-1.3.19-2.6.18-3.9l-.71-177.72c-.09-21.83-17.85-39.59-39.68-39.68-21.83-.09-39.45,17.53-39.36,39.36l.33,82.31-186.25-186.25c-15.5-15.5-40.52-15.6-55.89-.22-15.37,15.37-15.27,40.4.22,55.89l186.25,186.25-82.31-.33c-21.83-.09-39.45,17.53-39.36,39.36.04,10.91,4.51,20.81,11.69,27.99,7.18,7.18,17.08,11.64,27.99,11.69l177.72.71c1.3,0,2.6-.06,3.9-.18Z"/>
  <path class="cls-4" d="m977.36,1122.09c-.06-.6-.17-1.19-.25-1.79-.1-.68-.17-1.35-.3-2.03-.13-.69-.32-1.35-.49-2.03-.14-.57-.27-1.15-.44-1.72-.2-.67-.44-1.31-.68-1.96-.2-.56-.38-1.13-.61-1.68-.25-.62-.55-1.21-.84-1.81-.26-.56-.51-1.13-.8-1.68-.32-.6-.68-1.16-1.02-1.74-.31-.52-.61-1.06-.95-1.57-.44-.66-.93-1.28-1.4-1.91-.3-.39-.57-.8-.88-1.18-1.65-2.02-3.5-3.87-5.52-5.52-.38-.31-.79-.59-1.18-.88-.63-.48-1.25-.96-1.91-1.4-.51-.34-1.04-.63-1.57-.95-.58-.35-1.14-.71-1.74-1.02-.55-.29-1.12-.54-1.68-.8-.6-.28-1.19-.58-1.81-.84-.55-.23-1.12-.41-1.68-.61-.65-.23-1.29-.48-1.96-.68-.57-.17-1.15-.29-1.72-.43-.67-.17-1.34-.35-2.03-.49-.67-.13-1.35-.21-2.03-.3-.6-.08-1.18-.19-1.79-.25-1.3-.12-2.6-.19-3.9-.18l-177.72.71c-21.83.09-39.59,17.85-39.68,39.68-.09,21.83,17.53,39.45,39.36,39.36l82.31-.33-186.25,186.25c-15.5,15.5-15.6,40.52-.22,55.89,15.37,15.37,40.4,15.27,55.89-.22l186.25-186.25-.33,82.31c-.09,21.83,17.53,39.45,39.36,39.36,10.91-.04,20.81-4.51,27.99-11.69,7.18-7.18,11.64-17.08,11.69-27.99l.71-177.72c0-1.3-.06-2.6-.18-3.9Z"/>
  <path class="cls-4" d="m1022.64,1006.24c.06.6.17,1.19.25,1.79.1.68.17,1.35.3,2.03.13.69.32,1.35.49,2.03.14.57.27,1.15.44,1.72.2.67.44,1.31.68,1.96.2.56.38,1.13.61,1.68.25.62.55,1.21.84,1.81.26.56.51,1.13.8,1.68.32.6.68,1.16,1.02,1.74.31.52.61,1.06.95,1.57.44.66.93,1.28,1.4,1.91.3.39.57.8.88,1.18,1.65,2.02,3.5,3.87,5.52,5.52.38.31.79.59,1.18.88.63.48,1.25.96,1.91,1.4.51.34,1.04.63,1.57.95.58.35,1.14.71,1.74,1.02.55.29,1.12.54,1.68.8.6.28,1.19.58,1.81.84.55.23,1.12.41,1.68.61.65.23,1.29.48,1.96.68.57.17,1.15.29,1.72.43.67.17,1.34.35,2.03.49.67.13,1.35.21,2.03.3.6.08,1.18.19,1.79.25,1.3.12,2.6.19,3.9.18l177.72-.71c21.83-.09,39.59-17.85,39.68-39.68.09-21.83-17.53-39.45-39.36-39.36l-82.31.33,186.25-186.25c15.5-15.5,15.6-40.52.22-55.89-15.37-15.37-40.4-15.27-55.89.22l-186.25,186.25.33-82.31c.09-21.83-17.53-39.45-39.36-39.36-10.91.04-20.81,4.51-27.99,11.69-7.18,7.18-11.64,17.08-11.69,27.99l-.71,177.72c0,1.3.06,2.6.18,3.9Z"/>
  <path class="cls-4" d="m1057.92,1086.8c-.6.06-1.19.17-1.79.25-.68.1-1.35.17-2.03.3-.69.13-1.35.32-2.03.49-.57.14-1.15.27-1.72.44-.67.2-1.31.44-1.96.68-.56.2-1.13.38-1.68.61-.62.25-1.21.55-1.81.84-.56.26-1.13.51-1.68.8-.6.32-1.16.68-1.74,1.02-.52.31-1.06.61-1.57.95-.66.44-1.28.93-1.91,1.4-.39.3-.8.57-1.18.88-2.02,1.65-3.87,3.5-5.52,5.52-.31.38-.59.79-.88,1.18-.48.63-.96,1.25-1.4,1.91-.34.51-.63,1.04-.95,1.57-.35.58-.71,1.14-1.02,1.74-.29.55-.54,1.12-.8,1.68-.28.6-.58,1.19-.84,1.81-.23.55-.41,1.12-.61,1.68-.23.65-.48,1.29-.68,1.96-.17.57-.29,1.15-.43,1.72-.17.67-.35,1.34-.49,2.03-.13.67-.21,1.35-.3,2.03-.08.6-.19,1.18-.25,1.79-.12,1.3-.19,2.6-.18,3.9l.71,177.72c.09,21.83,17.85,39.59,39.68,39.68,21.83.09,39.45-17.53,39.36-39.36l-.33-82.31,186.25,186.25c15.5,15.5,40.52,15.6,55.89.22,15.37-15.37,15.27-40.4-.22-55.89l-186.25-186.25,82.31.33c21.83.09,39.45-17.53,39.36-39.36-.04-10.91-4.51-20.81-11.69-27.99-7.18-7.18-17.08-11.64-27.99-11.69l-177.72-.71c-1.3,0-2.6.06-3.9.18Z"/>
</svg>